<svg width="800" height="280" viewBox="0 0 800 280" xmlns="http://www.w3.org/2000/svg">
    <rect width="100%" height="100%" fill="#0b0f1a"/>
    <text x="40" y="36" font-size="16" fill="#e5e7eb">Languages by repositories</text>
    <text x="440" y="36" font-size="16" fill="#e5e7eb">Languages by activity</text>

    <!-- left legend -->
    <rect x="40" y="58" width="12" height="12" fill="#f97316" rx="2"/>
<text x="58" y="68" font-size="12" fill="#e5e7eb">C# — 33%</text>
<rect x="40" y="78" width="12" height="12" fill="#eab308" rx="2"/>
<text x="58" y="88" font-size="12" fill="#e5e7eb">Python — 17%</text>
<rect x="40" y="98" width="12" height="12" fill="#22c55e" rx="2"/>
<text x="58" y="108" font-size="12" fill="#e5e7eb">HTML — 17%</text>
<rect x="40" y="118" width="12" height="12" fill="#fb7185" rx="2"/>
<text x="58" y="128" font-size="12" fill="#e5e7eb">PHP — 17%</text>
<rect x="40" y="138" width="12" height="12" fill="#a78bfa" rx="2"/>
<text x="58" y="148" font-size="12" fill="#e5e7eb">C — 17%</text>

    <!-- right legend -->
    <rect x="440" y="58" width="12" height="12" fill="#06b6d4" rx="2"/>
<text x="458" y="68" font-size="12" fill="#e5e7eb">PHP — 41%</text>
<rect x="440" y="78" width="12" height="12" fill="#6366f1" rx="2"/>
<text x="458" y="88" font-size="12" fill="#e5e7eb">Python — 34%</text>
<rect x="440" y="98" width="12" height="12" fill="#00c2a8" rx="2"/>
<text x="458" y="108" font-size="12" fill="#e5e7eb">C — 17%</text>
<rect x="440" y="118" width="12" height="12" fill="#ff6b6b" rx="2"/>
<text x="458" y="128" font-size="12" fill="#e5e7eb">C# — 5%</text>
<rect x="440" y="138" width="12" height="12" fill="#ffd166" rx="2"/>
<text x="458" y="148" font-size="12" fill="#e5e7eb">HTML — 2%</text>

    # left pie
    <path d="M280.0,72.0 A88,88 0 0 1 356.21023553303064,204.0 L328.4974226119286,188.0 A56,56 0 0 0 280.0,104.0 Z" fill="#f97316"/><path d="M356.21023553303064,204.0 A88,88 0 0 1 280.0,248.0 L280.0,216.0 A56,56 0 0 0 328.4974226119286,188.0 Z" fill="#eab308"/><path d="M280.0,248.0 A88,88 0 0 1 203.78976446696942,204.00000000000003 L231.50257738807144,188.00000000000003 A56,56 0 0 0 280.0,216.0 Z" fill="#22c55e"/><path d="M203.78976446696942,204.00000000000003 A88,88 0 0 1 203.78976446696936,116.00000000000006 L231.50257738807142,132.00000000000003 A56,56 0 0 0 231.50257738807144,188.00000000000003 Z" fill="#fb7185"/><path d="M203.78976446696936,116.00000000000006 A88,88 0 0 1 279.9999999999999,72.0 L279.99999999999994,104.0 A56,56 0 0 0 231.50257738807142,132.00000000000003 Z" fill="#a78bfa"/>
    # right pie
    <path d="M680.0,72.0 A88,88 0 0 1 725.368739431578,235.40343150274782 L708.8710160019132,207.98400186538498 A56,56 0 0 0 680.0,104.0 Z" fill="#06b6d4"/><path d="M725.368739431578,235.40343150274782 A88,88 0 0 1 592.129059581101,155.2357760444833 L624.082128824337,156.96822111921665 A56,56 0 0 0 708.8710160019132,207.98400186538498 Z" fill="#6366f1"/><path d="M592.129059581101,155.2357760444833 A88,88 0 0 1 643.0497590626967,80.13336306895579 L656.4862103126252,109.17577649842642 A56,56 0 0 0 624.082128824337,156.96822111921665 Z" fill="#00c2a8"/><path d="M643.0497590626967,80.13336306895579 A88,88 0 0 1 667.3333403262775,72.91638654310393 L671.9393983894493,104.58315507288432 A56,56 0 0 0 656.4862103126252,109.17577649842642 Z" fill="#ff6b6b"/><path d="M667.3333403262775,72.91638654310393 A88,88 0 0 1 680.0,72.0 L680.0,104.0 A56,56 0 0 0 671.9393983894493,104.58315507288432 Z" fill="#ffd166"/>

    </svg>