<svg width="800" height="280" viewBox="0 0 800 280" xmlns="http://www.w3.org/2000/svg">
    <rect width="100%" height="100%" fill="#0b0f1a"/>
    <text x="40" y="36" font-size="16" fill="#e5e7eb">Languages by repositories</text>
    <text x="440" y="36" font-size="16" fill="#e5e7eb">Languages by activity</text>

    <!-- left legend -->
    <rect x="40" y="58" width="12" height="12" fill="#f97316" rx="2"/>
<text x="58" y="68" font-size="12" fill="#e5e7eb">C# — 50%</text>
<rect x="40" y="78" width="12" height="12" fill="#eab308" rx="2"/>
<text x="58" y="88" font-size="12" fill="#e5e7eb">Python — 12%</text>
<rect x="40" y="98" width="12" height="12" fill="#22c55e" rx="2"/>
<text x="58" y="108" font-size="12" fill="#e5e7eb">HTML — 12%</text>
<rect x="40" y="118" width="12" height="12" fill="#fb7185" rx="2"/>
<text x="58" y="128" font-size="12" fill="#e5e7eb">PHP — 12%</text>
<rect x="40" y="138" width="12" height="12" fill="#a78bfa" rx="2"/>
<text x="58" y="148" font-size="12" fill="#e5e7eb">C — 12%</text>

    <!-- right legend -->
    <rect x="440" y="58" width="12" height="12" fill="#06b6d4" rx="2"/>
<text x="458" y="68" font-size="12" fill="#e5e7eb">PHP — 37%</text>
<rect x="440" y="78" width="12" height="12" fill="#6366f1" rx="2"/>
<text x="458" y="88" font-size="12" fill="#e5e7eb">Python — 35%</text>
<rect x="440" y="98" width="12" height="12" fill="#00c2a8" rx="2"/>
<text x="458" y="108" font-size="12" fill="#e5e7eb">C — 15%</text>
<rect x="440" y="118" width="12" height="12" fill="#ff6b6b" rx="2"/>
<text x="458" y="128" font-size="12" fill="#e5e7eb">C# — 11%</text>
<rect x="440" y="138" width="12" height="12" fill="#ffd166" rx="2"/>
<text x="458" y="148" font-size="12" fill="#e5e7eb">HTML — 2%</text>

    # left pie
    <path d="M280.0,72.0 A88,88 0 0 1 280.0,248.0 L280.0,216.0 A56,56 0 0 0 280.0,104.0 Z" fill="#f97316"/><path d="M280.0,248.0 A88,88 0 0 1 217.77460325558383,222.22539674441617 L240.40202025355336,199.59797974644667 A56,56 0 0 0 280.0,216.0 Z" fill="#eab308"/><path d="M217.77460325558383,222.22539674441617 A88,88 0 0 1 192.0,160.0 L224.0,160.0 A56,56 0 0 0 240.40202025355336,199.59797974644667 Z" fill="#22c55e"/><path d="M192.0,160.0 A88,88 0 0 1 217.7746032555838,97.77460325558383 L240.40202025355333,120.40202025355335 A56,56 0 0 0 224.0,160.0 Z" fill="#fb7185"/><path d="M217.7746032555838,97.77460325558383 A88,88 0 0 1 280.0,72.0 L280.0,104.0 A56,56 0 0 0 240.40202025355333,120.40202025355335 Z" fill="#a78bfa"/>
    # right pie
    <path d="M680.0,72.0 A88,88 0 0 1 745.1444637426277,219.16247834299588 L721.4555678362177,197.64884985463374 A56,56 0 0 0 680.0,104.0 Z" fill="#06b6d4"/><path d="M745.1444637426277,219.16247834299588 A88,88 0 0 1 594.2063437279995,179.5818421881557 L625.4040369178178,172.4611723015536 A56,56 0 0 0 721.4555678362177,197.64884985463374 Z" fill="#6366f1"/><path d="M594.2063437279995,179.5818421881557 A88,88 0 0 1 614.8555362573723,100.83752165700415 L638.5444321637823,122.35115014536628 A56,56 0 0 0 625.4040369178178,172.4611723015536 Z" fill="#00c2a8"/><path d="M614.8555362573723,100.83752165700415 A88,88 0 0 1 668.7468097717634,72.72247878355435 L672.8388789456676,104.45975922589822 A56,56 0 0 0 638.5444321637823,122.35115014536628 Z" fill="#ff6b6b"/><path d="M668.7468097717634,72.72247878355435 A88,88 0 0 1 680.0,72.0 L680.0,104.0 A56,56 0 0 0 672.8388789456676,104.45975922589822 Z" fill="#ffd166"/>

    </svg>