<svg width="800" height="280" viewBox="0 0 800 280" xmlns="http://www.w3.org/2000/svg">
    <rect width="100%" height="100%" fill="#0b0f1a"/>
    <text x="40" y="36" font-size="16" fill="#e5e7eb">Languages by repositories</text>
    <text x="440" y="36" font-size="16" fill="#e5e7eb">Languages by activity</text>

    <!-- left legend -->
    <rect x="40" y="58" width="12" height="12" fill="#f97316" rx="2"/>
<text x="58" y="68" font-size="12" fill="#e5e7eb">C# — 56%</text>
<rect x="40" y="78" width="12" height="12" fill="#eab308" rx="2"/>
<text x="58" y="88" font-size="12" fill="#e5e7eb">Python — 11%</text>
<rect x="40" y="98" width="12" height="12" fill="#22c55e" rx="2"/>
<text x="58" y="108" font-size="12" fill="#e5e7eb">HTML — 11%</text>
<rect x="40" y="118" width="12" height="12" fill="#fb7185" rx="2"/>
<text x="58" y="128" font-size="12" fill="#e5e7eb">PHP — 11%</text>
<rect x="40" y="138" width="12" height="12" fill="#a78bfa" rx="2"/>
<text x="58" y="148" font-size="12" fill="#e5e7eb">C — 11%</text>

    <!-- right legend -->
    <rect x="440" y="58" width="12" height="12" fill="#06b6d4" rx="2"/>
<text x="458" y="68" font-size="12" fill="#e5e7eb">Python — 35%</text>
<rect x="440" y="78" width="12" height="12" fill="#6366f1" rx="2"/>
<text x="458" y="88" font-size="12" fill="#e5e7eb">C# — 30%</text>
<rect x="440" y="98" width="12" height="12" fill="#00c2a8" rx="2"/>
<text x="458" y="108" font-size="12" fill="#e5e7eb">PHP — 23%</text>
<rect x="440" y="118" width="12" height="12" fill="#ff6b6b" rx="2"/>
<text x="458" y="128" font-size="12" fill="#e5e7eb">C — 11%</text>
<rect x="440" y="138" width="12" height="12" fill="#ffd166" rx="2"/>
<text x="458" y="148" font-size="12" fill="#e5e7eb">HTML — 1%</text>

    # left pie
    <path d="M280.0,72.0 A88,88 0 1 1 249.90222738734116,242.69295062915995 L260.8468719737626,212.62278676401087 A56,56 0 1 0 280.0,104.0 Z" fill="#f97316"/><path d="M249.90222738734116,242.69295062915995 A88,88 0 0 1 203.7897644669694,204.0 L231.50257738807142,188.0 A56,56 0 0 0 260.8468719737626,212.62278676401087 Z" fill="#eab308"/><path d="M203.7897644669694,204.0 A88,88 0 0 1 193.3369177349257,144.71896036531012 L224.85076583131635,150.2757020506519 A56,56 0 0 0 231.50257738807142,188.0 Z" fill="#22c55e"/><path d="M193.3369177349257,144.71896036531012 A88,88 0 0 1 223.43469034758454,92.58808900552995 L244.0038938575538,117.10151118533724 A56,56 0 0 0 224.85076583131635,150.2757020506519 Z" fill="#fb7185"/><path d="M223.43469034758454,92.58808900552995 A88,88 0 0 1 280.0,72.0 L280.0,104.0 A56,56 0 0 0 244.0038938575538,117.10151118533724 Z" fill="#a78bfa"/>
    # right pie
    <path d="M680.0,72.0 A88,88 0 0 1 751.0898503667964,211.86745776328826 L725.2389956879614,193.00656403118344 A56,56 0 0 0 680.0,104.0 Z" fill="#06b6d4"/><path d="M751.0898503667964,211.86745776328826 A88,88 0 0 1 608.9101496332036,211.86745776328831 L634.7610043120386,193.00656403118347 A56,56 0 0 0 725.2389956879614,193.00656403118344 Z" fill="#6366f1"/><path d="M608.9101496332036,211.86745776328831 A88,88 0 0 1 619.350329080566,96.23780573596636 L641.4047548694512,119.42405819561495 A56,56 0 0 0 634.7610043120386,193.00656403118347 Z" fill="#00c2a8"/><path d="M619.350329080566,96.23780573596636 A88,88 0 0 1 672.9639475667251,72.28173527619117 L675.522512087916,104.17928608484893 A56,56 0 0 0 641.4047548694512,119.42405819561495 Z" fill="#ff6b6b"/><path d="M672.9639475667251,72.28173527619117 A88,88 0 0 1 680.0,72.0 L680.0,104.0 A56,56 0 0 0 675.522512087916,104.17928608484893 Z" fill="#ffd166"/>

    </svg>