<svg width="800" height="280" viewBox="0 0 800 280" xmlns="http://www.w3.org/2000/svg">
    <rect width="100%" height="100%" fill="#0b0f1a"/>
    <text x="40" y="36" font-size="16" fill="#e5e7eb">Languages by repositories</text>
    <text x="440" y="36" font-size="16" fill="#e5e7eb">Languages by activity</text>

    <!-- left legend -->
    <rect x="40" y="58" width="12" height="12" fill="#f97316" rx="2"/>
<text x="58" y="68" font-size="12" fill="#e5e7eb">C# — 56%</text>
<rect x="40" y="78" width="12" height="12" fill="#eab308" rx="2"/>
<text x="58" y="88" font-size="12" fill="#e5e7eb">Python — 11%</text>
<rect x="40" y="98" width="12" height="12" fill="#22c55e" rx="2"/>
<text x="58" y="108" font-size="12" fill="#e5e7eb">HTML — 11%</text>
<rect x="40" y="118" width="12" height="12" fill="#fb7185" rx="2"/>
<text x="58" y="128" font-size="12" fill="#e5e7eb">PHP — 11%</text>
<rect x="40" y="138" width="12" height="12" fill="#a78bfa" rx="2"/>
<text x="58" y="148" font-size="12" fill="#e5e7eb">C — 11%</text>

    <!-- right legend -->
    <rect x="440" y="58" width="12" height="12" fill="#06b6d4" rx="2"/>
<text x="458" y="68" font-size="12" fill="#e5e7eb">Python — 35%</text>
<rect x="440" y="78" width="12" height="12" fill="#6366f1" rx="2"/>
<text x="458" y="88" font-size="12" fill="#e5e7eb">C# — 30%</text>
<rect x="440" y="98" width="12" height="12" fill="#00c2a8" rx="2"/>
<text x="458" y="108" font-size="12" fill="#e5e7eb">PHP — 23%</text>
<rect x="440" y="118" width="12" height="12" fill="#ff6b6b" rx="2"/>
<text x="458" y="128" font-size="12" fill="#e5e7eb">C — 11%</text>
<rect x="440" y="138" width="12" height="12" fill="#ffd166" rx="2"/>
<text x="458" y="148" font-size="12" fill="#e5e7eb">HTML — 1%</text>

    # left pie
    <path d="M280.0,72.0 A88,88 0 1 1 249.90222738734116,242.69295062915995 L260.8468719737626,212.62278676401087 A56,56 0 1 0 280.0,104.0 Z" fill="#f97316"/><path d="M249.90222738734116,242.69295062915995 A88,88 0 0 1 203.7897644669694,204.0 L231.50257738807142,188.0 A56,56 0 0 0 260.8468719737626,212.62278676401087 Z" fill="#eab308"/><path d="M203.7897644669694,204.0 A88,88 0 0 1 193.3369177349257,144.71896036531012 L224.85076583131635,150.2757020506519 A56,56 0 0 0 231.50257738807142,188.0 Z" fill="#22c55e"/><path d="M193.3369177349257,144.71896036531012 A88,88 0 0 1 223.43469034758454,92.58808900552995 L244.0038938575538,117.10151118533724 A56,56 0 0 0 224.85076583131635,150.2757020506519 Z" fill="#fb7185"/><path d="M223.43469034758454,92.58808900552995 A88,88 0 0 1 280.0,72.0 L280.0,104.0 A56,56 0 0 0 244.0038938575538,117.10151118533724 Z" fill="#a78bfa"/>
    # right pie
    <path d="M680.0,72.0 A88,88 0 0 1 749.7262332326186,213.68661284892613 L724.3712393298482,194.16420817658937 A56,56 0 0 0 680.0,104.0 Z" fill="#06b6d4"/><path d="M749.7262332326186,213.68661284892613 A88,88 0 0 1 608.1944998864739,210.87209601978668 L634.305590836847,192.37315201259153 A56,56 0 0 0 724.3712393298482,194.16420817658937 Z" fill="#6366f1"/><path d="M608.1944998864739,210.87209601978668 A88,88 0 0 1 619.6578900323956,95.94666468748454 L641.6004754751608,119.23878661930834 A56,56 0 0 0 634.305590836847,192.37315201259153 Z" fill="#00c2a8"/><path d="M619.6578900323956,95.94666468748454 A88,88 0 0 1 673.0083853064891,72.27818216670677 L675.550790649584,104.17702501517704 A56,56 0 0 0 641.6004754751608,119.23878661930834 Z" fill="#ff6b6b"/><path d="M673.0083853064891,72.27818216670677 A88,88 0 0 1 680.0,72.0 L680.0,104.0 A56,56 0 0 0 675.550790649584,104.17702501517704 Z" fill="#ffd166"/>

    </svg>