<svg width="800" height="280" viewBox="0 0 800 280" xmlns="http://www.w3.org/2000/svg">
    <rect width="100%" height="100%" fill="#0b0f1a"/>
    <text x="40" y="36" font-size="16" fill="#e5e7eb">Languages by repositories</text>
    <text x="440" y="36" font-size="16" fill="#e5e7eb">Languages by activity</text>

    <!-- left legend -->
    <rect x="40" y="58" width="12" height="12" fill="#f97316" rx="2"/>
<text x="58" y="68" font-size="12" fill="#e5e7eb">C# — 50%</text>
<rect x="40" y="78" width="12" height="12" fill="#eab308" rx="2"/>
<text x="58" y="88" font-size="12" fill="#e5e7eb">Python — 12%</text>
<rect x="40" y="98" width="12" height="12" fill="#22c55e" rx="2"/>
<text x="58" y="108" font-size="12" fill="#e5e7eb">HTML — 12%</text>
<rect x="40" y="118" width="12" height="12" fill="#fb7185" rx="2"/>
<text x="58" y="128" font-size="12" fill="#e5e7eb">PHP — 12%</text>
<rect x="40" y="138" width="12" height="12" fill="#a78bfa" rx="2"/>
<text x="58" y="148" font-size="12" fill="#e5e7eb">C — 12%</text>

    <!-- right legend -->
    <rect x="440" y="58" width="12" height="12" fill="#06b6d4" rx="2"/>
<text x="458" y="68" font-size="12" fill="#e5e7eb">Python — 44%</text>
<rect x="440" y="78" width="12" height="12" fill="#6366f1" rx="2"/>
<text x="458" y="88" font-size="12" fill="#e5e7eb">PHP — 31%</text>
<rect x="440" y="98" width="12" height="12" fill="#00c2a8" rx="2"/>
<text x="458" y="108" font-size="12" fill="#e5e7eb">C — 15%</text>
<rect x="440" y="118" width="12" height="12" fill="#ff6b6b" rx="2"/>
<text x="458" y="128" font-size="12" fill="#e5e7eb">C# — 9%</text>
<rect x="440" y="138" width="12" height="12" fill="#ffd166" rx="2"/>
<text x="458" y="148" font-size="12" fill="#e5e7eb">HTML — 2%</text>

    # left pie
    <path d="M280.0,72.0 A88,88 0 0 1 280.0,248.0 L280.0,216.0 A56,56 0 0 0 280.0,104.0 Z" fill="#f97316"/><path d="M280.0,248.0 A88,88 0 0 1 217.77460325558383,222.22539674441617 L240.40202025355336,199.59797974644667 A56,56 0 0 0 280.0,216.0 Z" fill="#eab308"/><path d="M217.77460325558383,222.22539674441617 A88,88 0 0 1 192.0,160.0 L224.0,160.0 A56,56 0 0 0 240.40202025355336,199.59797974644667 Z" fill="#22c55e"/><path d="M192.0,160.0 A88,88 0 0 1 217.7746032555838,97.77460325558383 L240.40202025355333,120.40202025355335 A56,56 0 0 0 224.0,160.0 Z" fill="#fb7185"/><path d="M217.7746032555838,97.77460325558383 A88,88 0 0 1 280.0,72.0 L280.0,104.0 A56,56 0 0 0 240.40202025355333,120.40202025355335 Z" fill="#a78bfa"/>
    # right pie
    <path d="M680.0,72.0 A88,88 0 0 1 714.4930616676866,240.95819104197653 L701.9501301521642,211.51884884489417 A56,56 0 0 0 680.0,104.0 Z" fill="#06b6d4"/><path d="M714.4930616676866,240.95819104197653 A88,88 0 0 1 592.0713681609019,163.54340272962853 L624.0454161023921,162.25489264612725 A56,56 0 0 0 701.9501301521642,211.51884884489417 Z" fill="#6366f1"/><path d="M592.0713681609019,163.54340272962853 A88,88 0 0 1 623.4346903475845,92.58808900552995 L644.0038938575537,117.10151118533724 A56,56 0 0 0 624.0454161023921,162.25489264612725 Z" fill="#00c2a8"/><path d="M623.4346903475845,92.58808900552995 A88,88 0 0 1 670.5665323707046,72.50708778142635 L673.9968842359029,104.32269222454404 A56,56 0 0 0 644.0038938575537,117.10151118533724 Z" fill="#ff6b6b"/><path d="M670.5665323707046,72.50708778142635 A88,88 0 0 1 680.0,72.0 L680.0,104.0 A56,56 0 0 0 673.9968842359029,104.32269222454404 Z" fill="#ffd166"/>

    </svg>