<svg width="800" height="280" viewBox="0 0 800 280" xmlns="http://www.w3.org/2000/svg">
    <rect width="100%" height="100%" fill="#0b0f1a"/>
    <text x="40" y="36" font-size="16" fill="#e5e7eb">Languages by repositories</text>
    <text x="440" y="36" font-size="16" fill="#e5e7eb">Languages by activity</text>

    <!-- left legend -->
    <rect x="40" y="58" width="12" height="12" fill="#f97316" rx="2"/>
<text x="58" y="68" font-size="12" fill="#e5e7eb">Python — 17%</text>
<rect x="40" y="78" width="12" height="12" fill="#eab308" rx="2"/>
<text x="58" y="88" font-size="12" fill="#e5e7eb">PHP — 17%</text>
<rect x="40" y="98" width="12" height="12" fill="#22c55e" rx="2"/>
<text x="58" y="108" font-size="12" fill="#e5e7eb">C — 17%</text>
<rect x="40" y="118" width="12" height="12" fill="#fb7185" rx="2"/>
<text x="58" y="128" font-size="12" fill="#e5e7eb">C# — 17%</text>
<rect x="40" y="138" width="12" height="12" fill="#a78bfa" rx="2"/>
<text x="58" y="148" font-size="12" fill="#e5e7eb">HTML — 17%</text>
<rect x="40" y="158" width="12" height="12" fill="#6b7280" rx="2"/>
<text x="58" y="168" font-size="12" fill="#e5e7eb">Other — 17%</text>

    <!-- right legend -->
    <rect x="440" y="58" width="12" height="12" fill="#06b6d4" rx="2"/>
<text x="458" y="68" font-size="12" fill="#e5e7eb">Python — 37%</text>
<rect x="440" y="78" width="12" height="12" fill="#6366f1" rx="2"/>
<text x="458" y="88" font-size="12" fill="#e5e7eb">C# — 25%</text>
<rect x="440" y="98" width="12" height="12" fill="#00c2a8" rx="2"/>
<text x="458" y="108" font-size="12" fill="#e5e7eb">PHP — 23%</text>
<rect x="440" y="118" width="12" height="12" fill="#ff6b6b" rx="2"/>
<text x="458" y="128" font-size="12" fill="#e5e7eb">C — 11%</text>
<rect x="440" y="138" width="12" height="12" fill="#ffd166" rx="2"/>
<text x="458" y="148" font-size="12" fill="#e5e7eb">HTML — 3%</text>
<rect x="440" y="158" width="12" height="12" fill="#6b7280" rx="2"/>
<text x="458" y="168" font-size="12" fill="#e5e7eb">Other — 2%</text>

    # left pie
    <path d="M280.0,72.0 A88,88 0 0 1 356.2102355330306,116.0 L328.4974226119286,132.0 A56,56 0 0 0 280.0,104.0 Z" fill="#f97316"/><path d="M356.2102355330306,116.0 A88,88 0 0 1 356.21023553303064,204.0 L328.4974226119286,188.0 A56,56 0 0 0 328.4974226119286,132.0 Z" fill="#eab308"/><path d="M356.21023553303064,204.0 A88,88 0 0 1 280.0,248.0 L280.0,216.0 A56,56 0 0 0 328.4974226119286,188.0 Z" fill="#22c55e"/><path d="M280.0,248.0 A88,88 0 0 1 203.78976446696942,204.00000000000003 L231.50257738807144,188.00000000000003 A56,56 0 0 0 280.0,216.0 Z" fill="#fb7185"/><path d="M203.78976446696942,204.00000000000003 A88,88 0 0 1 203.78976446696936,116.00000000000006 L231.50257738807142,132.00000000000003 A56,56 0 0 0 231.50257738807144,188.00000000000003 Z" fill="#a78bfa"/><path d="M203.78976446696936,116.00000000000006 A88,88 0 0 1 279.9999999999999,72.0 L279.99999999999994,104.0 A56,56 0 0 0 231.50257738807142,132.00000000000003 Z" fill="#6b7280"/>
    # right pie
    <path d="M680.0,72.0 A88,88 0 0 1 744.3657971555248,220.00870067360094 L720.960052735334,198.1873549741097 A56,56 0 0 0 680.0,104.0 Z" fill="#06b6d4"/><path d="M744.3657971555248,220.00870067360094 A88,88 0 0 1 620.6382764811915,224.96295698993805 L642.2243577607583,201.34006353905147 A56,56 0 0 0 720.960052735334,198.1873549741097 Z" fill="#6366f1"/><path d="M620.6382764811915,224.96295698993805 A88,88 0 0 1 607.8865755018584,109.56534914217389 L634.1096389557281,127.90522218138338 A56,56 0 0 0 642.2243577607583,201.34006353905147 Z" fill="#00c2a8"/><path d="M607.8865755018584,109.56534914217389 A88,88 0 0 1 655.6686921259147,75.43057610970453 L664.5164404437639,106.18309388799379 A56,56 0 0 0 634.1096389557281,127.90522218138338 Z" fill="#ff6b6b"/><path d="M655.6686921259147,75.43057610970453 A88,88 0 0 1 669.4600081110499,72.6334814074587 L673.2927324343045,104.40312453201918 A56,56 0 0 0 664.5164404437639,106.18309388799379 Z" fill="#ffd166"/><path d="M669.4600081110499,72.6334814074587 A88,88 0 0 1 680.0,72.0 L680.0,104.0 A56,56 0 0 0 673.2927324343045,104.40312453201918 Z" fill="#6b7280"/>

    </svg>