<svg width="800" height="280" viewBox="0 0 800 280" xmlns="http://www.w3.org/2000/svg">
    <rect width="100%" height="100%" fill="#0b0f1a"/>
    <text x="40" y="36" font-size="16" fill="#e5e7eb">Languages by repositories</text>
    <text x="440" y="36" font-size="16" fill="#e5e7eb">Languages by activity</text>

    <!-- left legend -->
    <rect x="40" y="58" width="12" height="12" fill="#f97316" rx="2"/>
<text x="58" y="68" font-size="12" fill="#e5e7eb">Python — 17%</text>
<rect x="40" y="78" width="12" height="12" fill="#eab308" rx="2"/>
<text x="58" y="88" font-size="12" fill="#e5e7eb">PHP — 17%</text>
<rect x="40" y="98" width="12" height="12" fill="#22c55e" rx="2"/>
<text x="58" y="108" font-size="12" fill="#e5e7eb">C — 17%</text>
<rect x="40" y="118" width="12" height="12" fill="#fb7185" rx="2"/>
<text x="58" y="128" font-size="12" fill="#e5e7eb">C# — 17%</text>
<rect x="40" y="138" width="12" height="12" fill="#a78bfa" rx="2"/>
<text x="58" y="148" font-size="12" fill="#e5e7eb">HTML — 17%</text>
<rect x="40" y="158" width="12" height="12" fill="#6b7280" rx="2"/>
<text x="58" y="168" font-size="12" fill="#e5e7eb">Other — 17%</text>

    <!-- right legend -->
    <rect x="440" y="58" width="12" height="12" fill="#06b6d4" rx="2"/>
<text x="458" y="68" font-size="12" fill="#e5e7eb">Python — 38%</text>
<rect x="440" y="78" width="12" height="12" fill="#6366f1" rx="2"/>
<text x="458" y="88" font-size="12" fill="#e5e7eb">C# — 24%</text>
<rect x="440" y="98" width="12" height="12" fill="#00c2a8" rx="2"/>
<text x="458" y="108" font-size="12" fill="#e5e7eb">PHP — 22%</text>
<rect x="440" y="118" width="12" height="12" fill="#ff6b6b" rx="2"/>
<text x="458" y="128" font-size="12" fill="#e5e7eb">C — 11%</text>
<rect x="440" y="138" width="12" height="12" fill="#ffd166" rx="2"/>
<text x="458" y="148" font-size="12" fill="#e5e7eb">HTML — 2%</text>
<rect x="440" y="158" width="12" height="12" fill="#6b7280" rx="2"/>
<text x="458" y="168" font-size="12" fill="#e5e7eb">Other — 2%</text>

    # left pie
    <path d="M280.0,72.0 A88,88 0 0 1 356.2102355330306,116.0 L328.4974226119286,132.0 A56,56 0 0 0 280.0,104.0 Z" fill="#f97316"/><path d="M356.2102355330306,116.0 A88,88 0 0 1 356.21023553303064,204.0 L328.4974226119286,188.0 A56,56 0 0 0 328.4974226119286,132.0 Z" fill="#eab308"/><path d="M356.21023553303064,204.0 A88,88 0 0 1 280.0,248.0 L280.0,216.0 A56,56 0 0 0 328.4974226119286,188.0 Z" fill="#22c55e"/><path d="M280.0,248.0 A88,88 0 0 1 203.78976446696942,204.00000000000003 L231.50257738807144,188.00000000000003 A56,56 0 0 0 280.0,216.0 Z" fill="#fb7185"/><path d="M203.78976446696942,204.00000000000003 A88,88 0 0 1 203.78976446696936,116.00000000000006 L231.50257738807142,132.00000000000003 A56,56 0 0 0 231.50257738807144,188.00000000000003 Z" fill="#a78bfa"/><path d="M203.78976446696936,116.00000000000006 A88,88 0 0 1 279.9999999999999,72.0 L279.99999999999994,104.0 A56,56 0 0 0 231.50257738807142,132.00000000000003 Z" fill="#6b7280"/>
    # right pie
    <path d="M680.0,72.0 A88,88 0 0 1 739.7344656068989,224.6203808303403 L718.0128417498447,201.12206052839838 A56,56 0 0 0 680.0,104.0 Z" fill="#06b6d4"/><path d="M739.7344656068989,224.6203808303403 A88,88 0 0 1 617.7746032555838,222.22539674441617 L640.4020202535534,199.59797974644667 A56,56 0 0 0 718.0128417498447,201.12206052839838 Z" fill="#6366f1"/><path d="M617.7746032555838,222.22539674441617 A88,88 0 0 1 608.8065044950047,108.27489779826237 L634.695048315003,127.08402587162152 A56,56 0 0 0 640.4020202535534,199.59797974644667 Z" fill="#00c2a8"/><path d="M608.8065044950047,108.27489779826237 A88,88 0 0 1 656.1132404118734,75.30393919207904 L664.7993348075559,106.10250675859575 A56,56 0 0 0 634.695048315003,127.08402587162152 Z" fill="#ff6b6b"/><path d="M656.1132404118734,75.30393919207904 A88,88 0 0 1 669.6567090237103,72.60997578796649 L673.4179057423611,104.38816641052412 A56,56 0 0 0 664.7993348075559,106.10250675859575 Z" fill="#ffd166"/><path d="M669.6567090237103,72.60997578796649 A88,88 0 0 1 680.0,72.0 L680.0,104.0 A56,56 0 0 0 673.4179057423611,104.38816641052412 Z" fill="#6b7280"/>

    </svg>