<svg width="800" height="280" viewBox="0 0 800 280" xmlns="http://www.w3.org/2000/svg">
    <rect width="100%" height="100%" fill="#0b0f1a"/>
    <text x="40" y="36" font-size="16" fill="#e5e7eb">Languages by repositories</text>
    <text x="440" y="36" font-size="16" fill="#e5e7eb">Languages by activity</text>

    <!-- left legend -->
    <rect x="40" y="58" width="12" height="12" fill="#f97316" rx="2"/>
<text x="58" y="68" font-size="12" fill="#e5e7eb">C# — 50%</text>
<rect x="40" y="78" width="12" height="12" fill="#eab308" rx="2"/>
<text x="58" y="88" font-size="12" fill="#e5e7eb">Python — 12%</text>
<rect x="40" y="98" width="12" height="12" fill="#22c55e" rx="2"/>
<text x="58" y="108" font-size="12" fill="#e5e7eb">HTML — 12%</text>
<rect x="40" y="118" width="12" height="12" fill="#fb7185" rx="2"/>
<text x="58" y="128" font-size="12" fill="#e5e7eb">PHP — 12%</text>
<rect x="40" y="138" width="12" height="12" fill="#a78bfa" rx="2"/>
<text x="58" y="148" font-size="12" fill="#e5e7eb">C — 12%</text>

    <!-- right legend -->
    <rect x="440" y="58" width="12" height="12" fill="#06b6d4" rx="2"/>
<text x="458" y="68" font-size="12" fill="#e5e7eb">Python — 38%</text>
<rect x="440" y="78" width="12" height="12" fill="#6366f1" rx="2"/>
<text x="458" y="88" font-size="12" fill="#e5e7eb">PHP — 34%</text>
<rect x="440" y="98" width="12" height="12" fill="#00c2a8" rx="2"/>
<text x="458" y="108" font-size="12" fill="#e5e7eb">C — 16%</text>
<rect x="440" y="118" width="12" height="12" fill="#ff6b6b" rx="2"/>
<text x="458" y="128" font-size="12" fill="#e5e7eb">C# — 10%</text>
<rect x="440" y="138" width="12" height="12" fill="#ffd166" rx="2"/>
<text x="458" y="148" font-size="12" fill="#e5e7eb">HTML — 2%</text>

    # left pie
    <path d="M280.0,72.0 A88,88 0 0 1 280.0,248.0 L280.0,216.0 A56,56 0 0 0 280.0,104.0 Z" fill="#f97316"/><path d="M280.0,248.0 A88,88 0 0 1 217.77460325558383,222.22539674441617 L240.40202025355336,199.59797974644667 A56,56 0 0 0 280.0,216.0 Z" fill="#eab308"/><path d="M217.77460325558383,222.22539674441617 A88,88 0 0 1 192.0,160.0 L224.0,160.0 A56,56 0 0 0 240.40202025355336,199.59797974644667 Z" fill="#22c55e"/><path d="M192.0,160.0 A88,88 0 0 1 217.7746032555838,97.77460325558383 L240.40202025355333,120.40202025355335 A56,56 0 0 0 224.0,160.0 Z" fill="#fb7185"/><path d="M217.7746032555838,97.77460325558383 A88,88 0 0 1 280.0,72.0 L280.0,104.0 A56,56 0 0 0 240.40202025355333,120.40202025355335 Z" fill="#a78bfa"/>
    # right pie
    <path d="M680.0,72.0 A88,88 0 0 1 738.9474682433433,225.33908468673275 L717.5120252457639,201.57941752792084 A56,56 0 0 0 680.0,104.0 Z" fill="#06b6d4"/><path d="M738.9474682433433,225.33908468673275 A88,88 0 0 1 593.5976919175666,176.69254797891188 L625.0167130384515,170.62253053203483 A56,56 0 0 0 717.5120252457639,201.57941752792084 Z" fill="#6366f1"/><path d="M593.5976919175666,176.69254797891188 A88,88 0 0 1 619.1598134704583,96.41956509231339 L641.2835176630189,119.53972324056306 A56,56 0 0 0 625.0167130384515,170.62253053203483 Z" fill="#00c2a8"/><path d="M619.1598134704583,96.41956509231339 A88,88 0 0 1 669.6887826002009,72.60618559798365 L673.4383162001278,104.38575447144414 A56,56 0 0 0 641.2835176630189,119.53972324056306 Z" fill="#ff6b6b"/><path d="M669.6887826002009,72.60618559798365 A88,88 0 0 1 680.0,72.0 L680.0,104.0 A56,56 0 0 0 673.4383162001278,104.38575447144414 Z" fill="#ffd166"/>

    </svg>