<svg width="800" height="280" viewBox="0 0 800 280" xmlns="http://www.w3.org/2000/svg">
    <rect width="100%" height="100%" fill="#0b0f1a"/>
    <text x="40" y="36" font-size="16" fill="#e5e7eb">Languages by repositories</text>
    <text x="440" y="36" font-size="16" fill="#e5e7eb">Languages by activity</text>

    <!-- left legend -->
    <rect x="40" y="58" width="12" height="12" fill="#f97316" rx="2"/>
<text x="58" y="68" font-size="12" fill="#e5e7eb">C# — 43%</text>
<rect x="40" y="78" width="12" height="12" fill="#eab308" rx="2"/>
<text x="58" y="88" font-size="12" fill="#e5e7eb">Python — 14%</text>
<rect x="40" y="98" width="12" height="12" fill="#22c55e" rx="2"/>
<text x="58" y="108" font-size="12" fill="#e5e7eb">HTML — 14%</text>
<rect x="40" y="118" width="12" height="12" fill="#fb7185" rx="2"/>
<text x="58" y="128" font-size="12" fill="#e5e7eb">PHP — 14%</text>
<rect x="40" y="138" width="12" height="12" fill="#a78bfa" rx="2"/>
<text x="58" y="148" font-size="12" fill="#e5e7eb">C — 14%</text>

    <!-- right legend -->
    <rect x="440" y="58" width="12" height="12" fill="#06b6d4" rx="2"/>
<text x="458" y="68" font-size="12" fill="#e5e7eb">PHP — 40%</text>
<rect x="440" y="78" width="12" height="12" fill="#6366f1" rx="2"/>
<text x="458" y="88" font-size="12" fill="#e5e7eb">Python — 34%</text>
<rect x="440" y="98" width="12" height="12" fill="#00c2a8" rx="2"/>
<text x="458" y="108" font-size="12" fill="#e5e7eb">C — 16%</text>
<rect x="440" y="118" width="12" height="12" fill="#ff6b6b" rx="2"/>
<text x="458" y="128" font-size="12" fill="#e5e7eb">C# — 8%</text>
<rect x="440" y="138" width="12" height="12" fill="#ffd166" rx="2"/>
<text x="458" y="148" font-size="12" fill="#e5e7eb">HTML — 2%</text>

    # left pie
    <path d="M280.0,72.0 A88,88 0 0 1 318.18176904234514,239.2852603754129 L304.2974893905833,210.45425660253548 A56,56 0 0 0 280.0,104.0 Z" fill="#f97316"/><path d="M318.18176904234514,239.2852603754129 A88,88 0 0 1 241.8182309576549,239.2852603754129 L255.70251060941675,210.45425660253548 A56,56 0 0 0 304.2974893905833,210.45425660253548 Z" fill="#eab308"/><path d="M241.8182309576549,239.2852603754129 A88,88 0 0 1 194.20634372799952,179.5818421881557 L225.40403691781788,172.4611723015536 A56,56 0 0 0 255.70251060941675,210.45425660253548 Z" fill="#22c55e"/><path d="M194.20634372799952,179.5818421881557 A88,88 0 0 1 211.19882954281337,105.13289743643146 L236.21743698179034,125.08457109591093 A56,56 0 0 0 225.40403691781788,172.4611723015536 Z" fill="#fb7185"/><path d="M211.19882954281337,105.13289743643146 A88,88 0 0 1 280.0,72.0 L280.0,104.0 A56,56 0 0 0 236.21743698179034,125.08457109591093 Z" fill="#a78bfa"/>
    # right pie
    <path d="M680.0,72.0 A88,88 0 0 1 733.6713763872065,229.73796209169595 L714.1545122464041,204.37870314926107 A56,56 0 0 0 680.0,104.0 Z" fill="#06b6d4"/><path d="M733.6713763872065,229.73796209169595 A88,88 0 0 1 592.3275518451017,167.58563342949455 L624.2084420832465,164.8272212733147 A56,56 0 0 0 714.1545122464041,204.37870314926107 Z" fill="#6366f1"/><path d="M592.3275518451017,167.58563342949455 A88,88 0 0 1 628.7676894005722,88.45106324588917 L647.3976205276368,114.4688584292022 A56,56 0 0 0 624.2084420832465,164.8272212733147 Z" fill="#00c2a8"/><path d="M628.7676894005722,88.45106324588917 A88,88 0 0 1 667.8864907163291,72.83772092909444 L672.2914031831185,104.53309513669646 A56,56 0 0 0 647.3976205276368,114.4688584292022 Z" fill="#ff6b6b"/><path d="M667.8864907163291,72.83772092909444 A88,88 0 0 1 680.0,72.0 L680.0,104.0 A56,56 0 0 0 672.2914031831185,104.53309513669646 Z" fill="#ffd166"/>

    </svg>